# xmcd
#
# Track frame offsets:
#	182
#	16820
#	30162
#	49170
#	60927
#	77470
#	91262
#	106685
#	122082
#	139655
#	151532
#
# Disc length: 2290 seconds
# Revision: 5
# Processed by: cddbd v1.5.2PL0 Copyright (c) Steve Scherf et al.
# Submitted via: dBpowerAMP V12.0
#
DISCID=6908f00b
DTITLE=Carlene Carter - I Fell In Love
DYEAR=1990
DGENRE=Country
TTITLE0=I Fell In Love
TTITLE1=Come On Back
TTITLE2=The Sweetest Thing
TTITLE3=My Dixie Darlin'
TTITLE4=Goodnight Dallas
TTITLE5=One Love
TTITLE6=The Leavin' Side
TTITLE7=Guardian Angel
TTITLE8=Me And The Wildwood Rose
TTITLE9=You Are The One
TTITLE10=Easy From Now On
EXTD=
EXTT0=
EXTT1=
EXTT2=
EXTT3=
EXTT4=
EXTT5=
EXTT6=
EXTT7=
EXTT8=
EXTT9=
EXTT10=
PLAYORDER=
